<svg
  version="1.1"
  id="Capa_1"
  xmlns="http://www.w3.org/2000/svg"
  xmlns:xlink="http://www.w3.org/1999/xlink"
  x="0px"
  y="0px"
  viewBox="0 0 512 512"
  style="enable-background: new 0 0 512 512"
  xml:space="preserve"
>
  <g>
    <g>
      <g>
        <path
          d="M294.205,86.446c-10.801-2.323-21.436,4.55-23.757,15.349l-79.603,370.201h-53.844c-11.046,0-20,8.954-20,20
				s8.954,20,20,20h69.871c0.049,0.001,0.099,0.004,0.148,0.004c0.03,0,0.06-0.004,0.09-0.004H274c11.046,0,20-8.954,20-20
				s-8.954-20-20-20h-42.243l77.795-361.793C311.875,99.404,305.003,88.768,294.205,86.446z"
        />
        <path
          d="M374.999,0H238c-11.046,0-20,8.954-20,20c0,11.046,8.954,20,20,20h136.999c11.046,0,20-8.954,20-20
				C394.999,8.954,386.045,0,374.999,0z"
        />
      </g>
    </g>
  </g>
  <g></g>
  <g></g>
  <g></g>
  <g></g>
  <g></g>
  <g></g>
  <g></g>
  <g></g>
  <g></g>
  <g></g>
  <g></g>
  <g></g>
  <g></g>
  <g></g>
  <g></g>
</svg>
